
<svg xmlns="http://www.w3.org/2000/svg" width="1332" height="1332" viewBox="0 0 1332 1332">
  <g id="disc_minutes" transform="translate(1 0.5)">
    <circle id="bg" cx="665" cy="665" r="665" fill="#2c2c2c"/>
    <g id="_5x" data-name="5x">
      <g id="_00_30" data-name="00_30">
        <text id="_00" data-name="00" transform="translate(1188 572)" fill="none" stroke="#d0d0d0" stroke-width="1" font-size="120" font-family="Oswald" letter-spacing="-0.205em" text-anchor="middle"><tspan x="71.26" y="143">00</tspan></text>
        <text id="_30" data-name="30" transform="translate(142 759) rotate(180)" fill="none" stroke="#d0d0d0" stroke-width="1" font-size="120" font-family="Oswald" letter-spacing="-0.205em" text-anchor="middle"><tspan x="63.66" y="143">30</tspan></text>
      </g>
      <g id="_05_35" data-name="05_35" transform="translate(1573.657 909.34) rotate(150)">
        <text id="_35" data-name="35" transform="translate(1188 572)" fill="none" stroke="#d0d0d0" stroke-width="1" font-size="120" font-family="Oswald" letter-spacing="-0.205em" text-anchor="middle"><tspan x="68.12" y="143">35</tspan></text>
        <text id="_05" data-name="05" transform="translate(142 759) rotate(180)" fill="none" stroke="#d0d0d0" stroke-width="1" font-size="120" font-family="Oswald" letter-spacing="-0.205em" text-anchor="middle"><tspan x="68.72" y="143">05</tspan></text>
      </g>
      <g id="_10_40" data-name="10_40" transform="translate(1573.84 422.343) rotate(120)">
        <text id="_40" data-name="40" transform="translate(1188 572)" fill="none" stroke="#d0d0d0" stroke-width="1" font-size="120" font-family="Oswald" letter-spacing="-0.205em" text-anchor="middle"><tspan x="68.3" y="143">40</tspan></text>
        <text id="_10" data-name="10" transform="translate(142 759) rotate(180)" fill="none" stroke="#d0d0d0" stroke-width="1" font-size="120" font-family="Oswald" letter-spacing="-0.205em" text-anchor="middle"><tspan x="68.52" y="143">10</tspan></text>
      </g>
      <g id="_15_45" data-name="15_45" transform="translate(1330.5 0.5) rotate(90)">
        <text id="_45" data-name="45" transform="translate(1188 572)" fill="none" stroke="#d0d0d0" stroke-width="1" font-size="120" font-family="Oswald" letter-spacing="-0.205em" text-anchor="middle"><tspan x="68.76" y="143">45</tspan></text>
        <text id="_15" data-name="15" transform="translate(142 759) rotate(180)" fill="none" stroke="#d0d0d0" stroke-width="1" font-size="120" font-family="Oswald" letter-spacing="-0.205em" text-anchor="middle"><tspan x="68.98" y="143">15</tspan></text>
      </g>
      <g id="_20_50" data-name="20_50" transform="translate(908.84 -243.157) rotate(60)">
        <text id="_50" data-name="50" transform="translate(1188 572)" fill="none" stroke="#d0d0d0" stroke-width="1" font-size="120" font-family="Oswald" letter-spacing="-0.205em" text-anchor="middle"><tspan x="68.72" y="143">50</tspan></text>
        <text id="_20" data-name="20" transform="translate(142 759) rotate(180)" fill="none" stroke="#d0d0d0" stroke-width="1" font-size="120" font-family="Oswald" letter-spacing="-0.205em" text-anchor="middle"><tspan x="68.6" y="143">20</tspan></text>
      </g>
      <g id="_55_25" data-name="55_25" transform="translate(421.843 -243.34) rotate(30)">
        <text id="_55" data-name="55" transform="translate(1188 572)" fill="none" stroke="#d0d0d0" stroke-width="1" font-size="120" font-family="Oswald" letter-spacing="-0.205em" text-anchor="middle"><tspan x="68.18" y="143">55</tspan></text>
        <text id="_25" data-name="25" transform="translate(142 759) rotate(180)" fill="none" stroke="#d0d0d0" stroke-width="1" font-size="120" font-family="Oswald" letter-spacing="-0.205em" text-anchor="middle"><tspan x="68.06" y="143">25</tspan></text>
      </g>
    </g>
    <g id="secondary">
      <g id="secs_29" transform="matrix(0.995, 0.105, -0.105, 0.995, 73.154, -65.868)">
        <rect id="sec" width="16" height="4" transform="translate(1251 663)" fill="#d0d0d0" opacity="0.2"/>
        <rect id="sec-2" data-name="sec" width="16" height="4" transform="translate(63 663)" fill="#d0d0d0" opacity="0.2"/>
      </g>
      <g id="secs_28" transform="matrix(0.978, 0.208, -0.208, 0.978, 152.793, -123.729)">
        <rect id="sec-3" data-name="sec" width="16" height="4" transform="translate(1251 663)" fill="#d0d0d0" opacity="0.2"/>
        <rect id="sec-4" data-name="sec" width="16" height="4" transform="translate(63 663)" fill="#d0d0d0" opacity="0.2"/>
      </g>
      <g id="secs_27" transform="matrix(0.951, 0.309, -0.309, 0.951, 238.044, -172.949)">
        <rect id="sec-5" data-name="sec" width="16" height="4" transform="translate(1251 663)" fill="#d0d0d0" opacity="0.2"/>
        <rect id="sec-6" data-name="sec" width="16" height="4" transform="translate(63 663)" fill="#d0d0d0" opacity="0.2"/>
      </g>
      <g id="secs_26" transform="translate(327.972 -212.988) rotate(24)">
        <rect id="sec-7" data-name="sec" width="16" height="4" transform="translate(1251 663)" fill="#d0d0d0" opacity="0.2"/>
        <rect id="sec-8" data-name="sec" width="16" height="4" transform="translate(63 663)" fill="#d0d0d0" opacity="0.2"/>
      </g>
      <g id="secs_24" transform="matrix(0.809, 0.588, -0.588, 0.809, 517.881, -263.874)">
        <rect id="sec-9" data-name="sec" width="16" height="4" transform="translate(1251 663)" fill="#d0d0d0" opacity="0.2"/>
        <rect id="sec-10" data-name="sec" width="16" height="4" transform="translate(63 663)" fill="#d0d0d0" opacity="0.2"/>
      </g>
      <g id="secs_23" transform="translate(615.781 -274.163) rotate(42)">
        <rect id="sec-11" data-name="sec" width="16" height="4" transform="translate(1251 663)" fill="#d0d0d0" opacity="0.2"/>
        <rect id="sec-12" data-name="sec" width="16" height="4" transform="translate(63 663)" fill="#d0d0d0" opacity="0.2"/>
      </g>
      <g id="secs_22" transform="translate(714.219 -274.163) rotate(48)">
        <rect id="sec-13" data-name="sec" width="16" height="4" transform="translate(1251 663)" fill="#d0d0d0" opacity="0.2"/>
        <rect id="sec-14" data-name="sec" width="16" height="4" transform="translate(63 663)" fill="#d0d0d0" opacity="0.2"/>
      </g>
      <g id="secs_21" transform="translate(812.119 -263.874) rotate(54)">
        <rect id="sec-15" data-name="sec" width="16" height="4" transform="translate(1251 663)" fill="#d0d0d0" opacity="0.2"/>
        <rect id="sec-16" data-name="sec" width="16" height="4" transform="translate(63 663)" fill="#d0d0d0" opacity="0.2"/>
      </g>
      <g id="secs_19" transform="matrix(0.407, 0.914, -0.914, 0.407, 1002.028, -212.988)">
        <rect id="sec-17" data-name="sec" width="16" height="4" transform="translate(1251 663)" fill="#d0d0d0" opacity="0.2"/>
        <rect id="sec-18" data-name="sec" width="16" height="4" transform="translate(63 663)" fill="#d0d0d0" opacity="0.2"/>
      </g>
      <g id="secs_18" transform="matrix(0.309, 0.951, -0.951, 0.309, 1091.956, -172.949)">
        <rect id="sec-19" data-name="sec" width="16" height="4" transform="translate(1251 663)" fill="#d0d0d0" opacity="0.2"/>
        <rect id="sec-20" data-name="sec" width="16" height="4" transform="translate(63 663)" fill="#d0d0d0" opacity="0.2"/>
      </g>
      <g id="secs_17" transform="matrix(0.208, 0.978, -0.978, 0.208, 1177.207, -123.729)">
        <rect id="sec-21" data-name="sec" width="16" height="4" transform="translate(1251 663)" fill="#d0d0d0" opacity="0.2"/>
        <rect id="sec-22" data-name="sec" width="16" height="4" transform="translate(63 663)" fill="#d0d0d0" opacity="0.2"/>
      </g>
      <g id="secs_16" transform="matrix(0.105, 0.995, -0.995, 0.105, 1256.846, -65.868)">
        <rect id="sec-23" data-name="sec" width="16" height="4" transform="translate(1251 663)" fill="#d0d0d0" opacity="0.2"/>
        <rect id="sec-24" data-name="sec" width="16" height="4" transform="translate(63 663)" fill="#d0d0d0" opacity="0.2"/>
      </g>
      <g id="secs_14" transform="matrix(-0.105, 0.995, -0.995, -0.105, 1395.869, 73.154)">
        <rect id="sec-25" data-name="sec" width="16" height="4" transform="translate(1251 663)" fill="#d0d0d0" opacity="0.2"/>
        <rect id="sec-26" data-name="sec" width="16" height="4" transform="translate(63 663)" fill="#d0d0d0" opacity="0.2"/>
      </g>
      <g id="secs_13" transform="matrix(-0.208, 0.978, -0.978, -0.208, 1453.729, 152.793)">
        <rect id="sec-27" data-name="sec" width="16" height="4" transform="translate(1251 663)" fill="#d0d0d0" opacity="0.2"/>
        <rect id="sec-28" data-name="sec" width="16" height="4" transform="translate(63 663)" fill="#d0d0d0" opacity="0.2"/>
      </g>
      <g id="secs_12" transform="matrix(-0.309, 0.951, -0.951, -0.309, 1502.949, 238.044)">
        <rect id="sec-29" data-name="sec" width="16" height="4" transform="translate(1251 663)" fill="#d0d0d0" opacity="0.2"/>
        <rect id="sec-30" data-name="sec" width="16" height="4" transform="translate(63 663)" fill="#d0d0d0" opacity="0.2"/>
      </g>
      <g id="secs_11" transform="translate(1542.988 327.972) rotate(114)">
        <rect id="sec-31" data-name="sec" width="16" height="4" transform="translate(1251 663)" fill="#d0d0d0" opacity="0.2"/>
        <rect id="sec-32" data-name="sec" width="16" height="4" transform="translate(63 663)" fill="#d0d0d0" opacity="0.2"/>
      </g>
      <g id="secs_9" transform="translate(1593.874 517.881) rotate(126)">
        <rect id="sec-33" data-name="sec" width="16" height="4" transform="translate(1251 663)" fill="#d0d0d0" opacity="0.2"/>
        <rect id="sec-34" data-name="sec" width="16" height="4" transform="translate(63 663)" fill="#d0d0d0" opacity="0.2"/>
      </g>
      <g id="secs_8" transform="translate(1604.163 615.781) rotate(132)">
        <rect id="sec-35" data-name="sec" width="16" height="4" transform="translate(1251 663)" fill="#d0d0d0" opacity="0.2"/>
        <rect id="sec-36" data-name="sec" width="16" height="4" transform="translate(63 663)" fill="#d0d0d0" opacity="0.2"/>
      </g>
      <g id="secs_7" transform="translate(1604.163 714.219) rotate(138)">
        <rect id="sec-37" data-name="sec" width="16" height="4" transform="translate(1251 663)" fill="#d0d0d0" opacity="0.2"/>
        <rect id="sec-38" data-name="sec" width="16" height="4" transform="translate(63 663)" fill="#d0d0d0" opacity="0.2"/>
      </g>
      <g id="secs_6" transform="matrix(-0.809, 0.588, -0.588, -0.809, 1593.874, 812.119)">
        <rect id="sec-39" data-name="sec" width="16" height="4" transform="translate(1251 663)" fill="#d0d0d0" opacity="0.2"/>
        <rect id="sec-40" data-name="sec" width="16" height="4" transform="translate(63 663)" fill="#d0d0d0" opacity="0.2"/>
      </g>
      <g id="secs_4" transform="translate(1542.988 1002.028) rotate(156)">
        <rect id="sec-41" data-name="sec" width="16" height="4" transform="translate(1251 663)" fill="#d0d0d0" opacity="0.2"/>
        <rect id="sec-42" data-name="sec" width="16" height="4" transform="translate(63 663)" fill="#d0d0d0" opacity="0.2"/>
      </g>
      <g id="secs_3" transform="matrix(-0.951, 0.309, -0.309, -0.951, 1502.949, 1091.956)">
        <rect id="sec-43" data-name="sec" width="16" height="4" transform="translate(1251 663)" fill="#d0d0d0" opacity="0.2"/>
        <rect id="sec-44" data-name="sec" width="16" height="4" transform="translate(63 663)" fill="#d0d0d0" opacity="0.2"/>
      </g>
      <g id="secs_2" transform="matrix(-0.978, 0.208, -0.208, -0.978, 1453.729, 1177.207)">
        <rect id="sec-45" data-name="sec" width="16" height="4" transform="translate(1251 663)" fill="#d0d0d0" opacity="0.2"/>
        <rect id="sec-46" data-name="sec" width="16" height="4" transform="translate(63 663)" fill="#d0d0d0" opacity="0.2"/>
      </g>
      <g id="secs_1" transform="matrix(-0.995, 0.105, -0.105, -0.995, 1395.869, 1256.846)">
        <rect id="sec-47" data-name="sec" width="16" height="4" transform="translate(1251 663)" fill="#d0d0d0" opacity="0.2"/>
        <rect id="sec-48" data-name="sec" width="16" height="4" transform="translate(63 663)" fill="#d0d0d0" opacity="0.2"/>
      </g>
    </g>
  </g>
</svg>
