<svg width="854" height="852" viewBox="0 0 854 852" fill="none" xmlns="http://www.w3.org/2000/svg">
<circle cx="427.665" cy="426.335" r="425.335" fill="#2C2C2C"/>
<path d="M753.91 392.006C752.63 393.846 750.51 395.486 747.55 396.926C744.67 398.366 742.15 399.406 739.99 400.046V394.526C742.31 393.886 744.91 392.526 747.79 390.446C750.67 388.366 753.03 385.966 754.87 383.246H760.39V480.446H753.91V392.006ZM778.223 475.646L805.223 434.606C808.103 430.286 810.223 426.926 811.583 424.526C813.023 422.046 814.223 419.246 815.183 416.126C816.223 412.926 816.743 409.446 816.743 405.686C816.743 400.006 815.463 395.566 812.903 392.366C810.343 389.166 806.703 387.566 801.983 387.566C795.583 387.566 791.143 389.446 788.663 393.206C786.263 396.886 785.023 402.246 784.943 409.286V410.846H778.703V408.926C778.703 399.806 780.543 393.086 784.223 388.766C787.903 384.366 793.743 382.166 801.743 382.166C808.703 382.166 813.983 384.326 817.583 388.646C821.263 392.886 823.103 398.886 823.103 406.646C823.103 411.766 822.063 416.526 819.983 420.926C817.983 425.326 814.983 430.566 810.983 436.646L785.543 475.046H821.183V480.446H778.223V475.646Z" fill="#D0D0D0"/>
<path d="M71.544 370.905C79.064 370.905 84.544 373.345 87.984 378.225C91.424 383.105 93.144 390.545 93.144 400.545L93.144 442.905C93.1439 461.305 85.9839 470.505 71.6639 470.505C64.5439 470.505 59.3439 468.705 56.0639 465.105C52.7039 461.585 50.9839 456.105 50.9039 448.665L50.9039 446.385L57.0239 446.385C57.0239 453.345 58.1439 458.225 60.3839 461.025C62.5439 463.825 66.1439 465.225 71.1839 465.225C75.9839 465.225 79.7839 463.625 82.5839 460.425C85.3839 457.305 86.7839 451.905 86.7839 444.225L86.784 423.705C84.704 425.065 82.184 426.265 79.224 427.305C76.264 428.345 73.264 428.865 70.224 428.865C64.864 428.865 60.704 427.945 57.744 426.105C54.7039 424.265 52.5439 421.225 51.2639 416.985C49.9039 412.745 49.224 406.865 49.224 399.345C49.224 389.985 50.984 382.905 54.504 378.105C58.024 373.305 63.704 370.905 71.544 370.905ZM71.544 376.305C67.944 376.305 65.024 376.945 62.784 378.225C60.464 379.505 58.704 381.745 57.504 384.945C56.304 388.225 55.704 392.745 55.704 398.505C55.7039 405.145 56.104 410.185 56.904 413.625C57.624 417.145 59.104 419.705 61.344 421.305C63.584 422.905 66.984 423.705 71.544 423.705C74.104 423.705 76.864 423.145 79.824 422.025C82.784 420.985 85.104 419.905 86.784 418.785L86.784 400.665C86.784 394.425 86.224 389.505 85.104 385.905C83.984 382.385 82.344 379.905 80.184 378.465C77.944 377.025 75.064 376.305 71.544 376.305Z" fill="#D0D0D0"/>
<path d="M372.234 781.554C372.234 774.354 374.034 769.034 377.634 765.594C381.234 762.154 386.754 760.434 394.194 760.434L396.354 760.434L396.354 766.554C391.554 766.554 387.794 767.034 385.074 767.994C382.354 768.954 380.394 770.514 379.194 772.674C378.074 774.834 377.514 777.834 377.514 781.674C377.514 786.474 379.034 790.074 382.074 792.474C385.194 794.954 390.674 796.194 398.514 796.194L419.034 796.194C417.674 794.594 416.474 792.394 415.434 789.594C414.394 786.794 413.874 783.474 413.874 779.634C413.874 774.274 414.794 770.074 416.634 767.034C418.474 764.074 421.514 761.914 425.754 760.554C429.994 759.274 435.914 758.634 443.514 758.634C452.794 758.634 459.834 760.434 464.634 764.034C469.434 767.634 471.834 773.354 471.834 781.194C471.834 788.634 469.394 794.034 464.514 797.394C459.634 800.834 452.194 802.554 442.194 802.554L399.834 802.554C390.874 802.554 384.034 800.874 379.314 797.514C374.594 794.234 372.234 788.914 372.234 781.554ZM419.034 781.074C419.034 784.434 419.514 787.394 420.474 789.954C421.514 792.514 422.674 794.594 423.954 796.194L442.074 796.194C448.314 796.194 453.194 795.634 456.714 794.514C460.314 793.474 462.834 791.834 464.274 789.594C465.714 787.434 466.434 784.634 466.434 781.194C466.434 775.834 464.754 771.834 461.394 769.194C458.034 766.554 452.314 765.234 444.234 765.234C437.594 765.234 432.514 765.594 428.994 766.314C425.554 767.114 423.034 768.634 421.434 770.874C419.834 773.114 419.034 776.514 419.034 781.074Z" fill="#D0D0D0"/>
<path d="M483.095 72.3396C483.095 79.3796 481.095 84.5396 477.095 87.8196C473.095 91.0996 467.455 92.7396 460.175 92.7396L458.375 92.7396L458.375 86.7396L460.295 86.7396C466.135 86.6596 470.535 85.4996 473.495 83.2596C476.455 80.9396 477.935 77.2996 477.935 72.3396C477.935 67.3796 476.295 63.4996 473.015 60.6996C469.735 57.8196 464.055 56.3796 455.975 56.3796C441.255 56.3796 433.855 61.5796 433.775 71.9796L433.775 74.7396L428.135 74.7396L428.135 71.9796C428.135 66.3796 426.495 62.3796 423.215 59.9796C419.935 57.5796 414.655 56.3796 407.375 56.3796C394.895 56.3796 388.655 61.2196 388.655 70.8996C388.655 76.2596 390.015 80.2196 392.735 82.7796C395.455 85.3396 399.975 86.6596 406.295 86.7396L407.735 86.7396L407.735 92.7396L406.175 92.7396C398.975 92.7396 393.415 91.0596 389.495 87.6996C385.495 84.2596 383.495 78.6996 383.495 71.0196C383.495 63.8996 385.695 58.5796 390.095 55.0596C394.495 51.5396 400.255 49.7796 407.375 49.7796C414.415 49.7796 419.935 51.0596 423.935 53.6196C427.935 56.0996 430.335 59.4196 431.135 63.5796C432.015 59.8996 434.455 56.6996 438.455 53.9796C442.455 51.1796 448.255 49.7796 455.855 49.7796C464.335 49.7796 471.015 51.6196 475.895 55.2996C480.695 58.8996 483.095 64.5796 483.095 72.3396Z" fill="#D0D0D0"/>
<path d="M734.533 564.25C732.505 565.203 729.849 565.563 726.565 565.33C723.351 565.138 720.649 564.778 718.458 564.252L721.218 559.472C723.547 560.078 726.479 560.2 730.013 559.839C733.547 559.477 736.791 558.579 739.744 557.143L744.525 559.903L695.925 644.081L690.313 640.841L734.533 564.25ZM767.228 583.126C765.2 584.08 762.544 584.44 759.26 584.207C756.046 584.014 753.344 583.655 751.153 583.129L753.913 578.349C756.242 578.954 759.174 579.077 762.708 578.715C766.242 578.354 769.486 577.455 772.44 576.02L777.22 578.78L728.62 662.957L723.008 659.717L767.228 583.126Z" fill="#D0D0D0"/>
<path d="M146.786 200.825C152.952 204.385 156.435 208.752 157.236 213.925C157.967 219.059 156.233 225.263 152.033 232.537L146.629 229.417C150.069 223.459 151.619 218.534 151.279 214.643C150.899 210.821 148.457 207.61 143.954 205.01C140.698 203.13 137.694 202.412 134.944 202.856C132.084 203.33 129.353 204.94 126.751 207.687C124.039 210.463 121.144 214.519 118.064 219.853C114.704 225.673 112.569 230.491 111.658 234.307C110.639 238.153 110.685 241.274 111.795 243.67C112.797 246.096 114.787 248.169 117.766 249.889C122.616 252.689 127.925 252.613 133.693 249.662L138.162 252.242L113.442 295.058L82.8886 277.418L85.7525 272.698L111.525 287.578L130.633 254.962C128.346 256.043 125.774 256.498 122.917 256.327C119.951 256.184 116.909 255.213 113.791 253.413C108.041 250.093 105.095 245.436 104.953 239.442C104.771 233.517 107.24 226.121 112.36 217.253C117.76 207.9 123.264 201.886 128.872 199.212C134.371 196.567 140.342 197.105 146.786 200.825Z" fill="#D0D0D0"/>
<path d="M202.264 706.058C209.664 693.241 221.054 691.272 236.435 700.152C241.562 703.112 245.235 706.111 247.454 709.147C249.673 712.183 250.906 714.927 251.153 717.379C251.429 719.941 251.382 722.823 251.01 726.027C254.359 722.787 258.371 721.038 263.045 720.781C267.72 720.524 272.864 722.016 278.475 725.256C284.849 728.936 289.067 733.311 291.128 738.381C293.189 743.451 292.32 749.276 288.52 755.858C284.76 762.371 280.155 765.947 274.704 766.588C269.214 767.298 263.247 765.792 256.804 762.072C251.261 758.872 247.467 755.204 245.421 751.067C243.405 747.039 242.928 742.745 243.99 738.186C241.402 740.109 238.949 741.557 236.633 742.529C234.346 743.61 231.333 743.949 227.594 743.545C223.855 743.142 219.422 741.46 214.295 738.5C198.914 729.62 194.904 718.806 202.264 706.058ZM249.861 733.538C247.458 738.34 247.166 742.606 248.985 746.335C250.873 750.104 254.554 753.568 260.028 756.728C265.639 759.968 270.382 761.275 274.254 760.647C278.087 760.088 281.283 757.592 283.843 753.158C286.403 748.724 286.987 744.673 285.594 741.005C284.202 737.338 280.699 733.884 275.088 730.644C269.614 727.484 264.773 726.028 260.565 726.278C256.426 726.567 252.858 728.987 249.861 733.538ZM206.733 708.638C204.213 713.003 203.727 717.203 205.277 721.239C206.827 725.274 210.928 729.212 217.579 733.052C223.537 736.492 228.764 738.078 233.26 737.81C237.826 737.583 241.766 735.239 245.08 730.778C247.366 725.539 247.466 720.886 245.38 716.818C243.364 712.79 239.377 709.056 233.419 705.616C226.768 701.776 221.307 700.194 217.037 700.87C212.727 701.615 209.293 704.204 206.733 708.638Z" fill="#D0D0D0"/>
<path d="M636.121 164.078L614.079 120.176C611.778 115.522 609.928 112.006 608.53 109.628C607.102 107.141 605.277 104.702 603.055 102.31C600.804 99.8095 598.05 97.6192 594.794 95.7392C589.875 92.8992 585.39 91.7877 581.338 92.4047C577.287 93.0217 574.081 95.3741 571.721 99.4617C568.521 105.004 567.93 109.789 569.946 113.817C571.933 117.736 575.955 121.489 582.011 125.079L583.362 125.859L580.242 131.263L578.58 130.303C570.682 125.743 565.782 120.789 563.881 115.442C561.91 110.055 562.925 103.898 566.925 96.9695C570.405 90.942 574.915 87.4494 580.457 86.4917C585.969 85.4247 592.085 86.8312 598.805 90.7112C603.239 93.2712 606.842 96.5519 609.612 100.553C612.423 104.485 615.461 109.703 618.726 116.207L639.261 157.439L657.081 126.574L661.758 129.274L640.278 166.478L636.121 164.078Z" fill="#D0D0D0"/>
<path d="M619.531 690.906C617.297 690.718 614.817 689.702 612.09 687.858C609.403 686.084 607.242 684.422 605.608 682.871L610.388 680.111C612.103 681.801 614.58 683.372 617.822 684.826C621.063 686.28 624.322 687.124 627.597 687.358L630.357 692.138L546.179 740.738L542.939 735.126L619.531 690.906ZM566.193 778.042C562.033 770.837 561.261 764.54 563.876 759.15C566.561 753.72 571.852 748.725 579.75 744.165L616.539 722.925C624.368 718.405 631.29 716.395 637.306 716.894C643.361 717.462 648.409 721.245 652.449 728.242C656.529 735.309 657.281 741.572 654.706 747.031C652.17 752.56 646.988 757.584 639.159 762.104L602.37 783.344C594.403 787.944 587.432 790.029 581.456 789.599C575.481 789.169 570.393 785.317 566.193 778.042ZM570.454 775.582C573.374 780.64 577.131 783.228 581.726 783.347C586.43 783.494 591.9 781.768 598.135 778.168L636.691 755.908C642.926 752.308 647.121 748.454 649.276 744.347C651.471 740.308 651.108 735.76 648.188 730.702C645.308 725.714 641.516 723.146 636.812 722.998C632.177 722.811 626.777 724.497 620.611 728.057L582.055 750.317C575.889 753.877 571.694 757.731 569.47 761.878C567.246 766.026 567.574 770.594 570.454 775.582Z" fill="#D0D0D0"/>
<path d="M266.975 100.459L281.975 126.44L276.675 129.5L209.214 135.054L205.494 128.611L258.703 97.8908L253.063 88.1221L258.155 85.1821L263.795 94.9508L289.672 80.0108L292.852 85.5188L266.975 100.459ZM261.883 103.399L216.78 129.439L273.523 123.56L261.883 103.399Z" fill="#D0D0D0"/>
<path d="M129.846 642.464L157.073 626.744L159.713 631.316L126.77 650.336L125.15 647.53L95.6289 556.079L101.033 552.959L129.846 642.464Z" fill="#D0D0D0"/>
<path d="M716.475 220.475C716.286 222.709 715.27 225.189 713.427 227.916C711.653 230.603 709.99 232.764 708.44 234.398L705.68 229.618C707.369 227.904 708.941 225.426 710.395 222.184C711.849 218.943 712.693 215.685 712.926 212.409L717.707 209.649L766.307 293.827L760.695 297.067L716.475 220.475Z" fill="#D0D0D0"/>
</svg>
